<?xml version="1.0" standalone="no"?>
<!DOCTYPE svg PUBLIC "-//W3C//DTD SVG 20010904//EN"
 "http://www.w3.org/TR/2001/REC-SVG-20010904/DTD/svg10.dtd">
<svg version="1.0" xmlns="http://www.w3.org/2000/svg"
 width="192.000000pt" height="192.000000pt" viewBox="0 0 192.000000 192.000000"
 preserveAspectRatio="xMidYMid meet">
<metadata>
Created by potrace 1.14, written by Peter Selinger 2001-2017
</metadata>
<g transform="translate(0.000000,192.000000) scale(0.100000,-0.100000)"
fill="#000000" stroke="none">
<path d="M1270 1794 c0 -8 -16 -10 -47 -8 -56 5 -106 -17 -136 -58 -17 -23
-20 -43 -20 -143 0 -63 3 -118 6 -121 3 -4 35 -6 72 -6 36 0 68 -4 71 -9 3 -5
9 -7 13 -5 4 3 24 -9 45 -26 l37 -31 195 1 c107 1 194 -2 195 -6 0 -4 2 -15 4
-24 2 -10 -1 -21 -6 -24 -6 -3 -88 -6 -183 -6 l-173 0 1 -68 c1 -38 4 -71 7
-75 4 -3 79 -6 169 -6 89 0 169 -3 176 -6 23 -8 16 -39 -11 -51 -14 -6 -25 -8
-25 -4 0 4 -25 7 -55 7 -30 0 -55 -3 -55 -6 0 -4 -18 -3 -40 1 -22 4 -40 5
-40 1 0 -8 -95 -5 -108 3 -14 9 -19 -12 -17 -84 l1 -65 173 -2 c99 0 177 -5
183 -11 6 -6 7 -19 4 -30 -6 -18 -16 -20 -154 -20 -81 -1 -161 -1 -177 -2
l-30 0 0 -217 c0 -227 -4 -257 -46 -317 -32 -48 -75 -64 -176 -67 l-62 -2 6
-31 c10 -56 27 -85 65 -106 36 -20 48 -21 337 -18 l299 3 26 30 c34 39 40 48
45 65 6 26 4 107 -3 119 -4 6 -3 11 2 11 10 0 9 30 -2 48 -4 6 -3 12 1 12 9 0
8 74 -2 90 -3 6 -2 10 3 10 10 0 9 30 -2 48 -4 6 -4 12 1 12 10 0 9 91 -1 108
-4 7 -3 12 1 12 12 0 10 63 -1 72 -6 4 -5 12 2 20 9 11 9 17 0 26 -7 7 -8 12
-2 12 10 0 10 67 1 77 -3 3 -2 15 3 28 5 14 5 26 -3 34 -8 8 -8 11 1 11 8 0 9
7 2 25 -6 16 -6 26 1 31 6 4 6 11 -2 20 -6 8 -8 14 -3 14 11 0 11 81 0 98 -4
7 -4 12 1 12 4 0 8 16 8 35 0 19 -4 35 -8 35 -4 0 -4 8 0 18 10 21 10 43 0 60
-5 6 -4 12 0 12 12 0 10 63 -2 72 -6 5 -5 12 2 19 9 9 10 16 2 26 -7 7 -7 13
-3 13 5 0 8 17 6 38 -1 20 -3 43 -2 50 0 6 0 20 0 30 0 9 0 29 0 44 1 83 -57
136 -145 134 -31 0 -55 3 -55 9 0 6 -3 6 -8 0 -9 -14 -224 -13 -234 0 -5 6 -8
6 -8 -1 0 -14 -102 -13 -112 1 -5 6 -8 6 -8 -1z m430 -210 c8 -8 9 -18 2 -30
-9 -18 -26 -19 -242 -18 -214 0 -234 2 -246 19 -27 36 3 41 246 41 158 -1 233
-5 240 -12z m-186 -967 c45 -44 47 -122 5 -163 -45 -44 -123 -31 -150 25 -15
32 -19 70 -7 77 4 3 6 9 3 14 -7 12 24 49 50 60 25 11 83 4 99 -13z"/>
<path d="M506 1403 c-3 -3 -80 -6 -170 -6 -146 1 -168 -1 -196 -19 -18 -10
-34 -28 -37 -39 -3 -10 -9 -19 -14 -19 -5 0 -9 -10 -9 -22 0 -13 -1 -203 -2
-423 -2 -432 -2 -431 52 -480 21 -19 38 -20 545 -23 468 -2 525 -1 539 13 9 9
16 14 16 10 0 -3 12 6 28 22 l27 27 3 419 c3 428 1 458 -35 495 -37 38 -57 40
-393 40 -181 0 -333 3 -338 6 -5 3 -12 3 -16 -1z m660 -135 c7 -5 11 -544 5
-639 -1 -14 -53 -15 -488 -15 l-488 1 -3 327 c-2 300 -1 327 15 330 29 5 949
1 959 -4z m-411 -748 c28 -24 -6 -45 -76 -47 -53 -1 -61 1 -68 20 -6 15 -4 25
6 32 19 14 119 11 138 -5z"/>
<path d="M452 268 c0 -90 3 -86 -48 -84 -40 2 -47 -1 -55 -22 -5 -13 -9 -25
-9 -27 0 -4 54 -19 63 -16 33 7 67 7 67 -1 0 -5 6 -6 12 -2 16 10 48 13 48 5
0 -6 14 -6 107 2 18 1 34 -2 36 -7 2 -6 9 -6 17 -1 17 11 80 13 80 4 0 -4 15
-3 34 1 19 4 40 4 47 0 7 -5 17 -6 23 -4 25 9 76 11 76 2 0 -5 6 -6 12 -1 7 4
22 7 33 8 27 0 35 54 8 56 -27 2 -77 6 -84 8 -4 0 -7 22 -7 49 0 26 -1 53 -1
60 -1 9 -54 12 -230 12 l-229 0 0 -42z"/>
</g>
</svg>
